<?xml version="1.0" standalone="no"?>
<!DOCTYPE svg PUBLIC "-//W3C//DTD SVG 20010904//EN"
 "http://www.w3.org/TR/2001/REC-SVG-20010904/DTD/svg10.dtd">
<svg version="1.0" xmlns="http://www.w3.org/2000/svg"
 width="240.000000pt" height="240.000000pt" viewBox="0 0 240.000000 240.000000"
 preserveAspectRatio="xMidYMid meet">
<metadata>
Created by potrace 1.16, written by Peter Selinger 2001-2019
</metadata>
<g transform="translate(0.000000,240.000000) scale(0.100000,-0.100000)"
fill="#000000" stroke="none">
<path d="M0 1200 l0 -1200 1200 0 1200 0 0 1200 0 1200 -1200 0 -1200 0 0
-1200z m1956 966 c28 -28 34 -42 34 -76 0 -34 -6 -48 -34 -76 -39 -39 -62 -43
-72 -12 -6 20 -7 21 -17 2 -5 -10 -11 -20 -13 -22 -1 -2 -13 2 -25 9 -40 21
-58 51 -59 98 0 36 6 49 34 77 28 28 42 34 76 34 34 0 48 -6 76 -34z m-38
-339 c45 -46 50 -57 27 -57 -13 0 -15 -23 -15 -150 l0 -150 -60 0 -60 0 0 149
c0 134 -2 150 -17 153 -14 3 -9 12 26 51 24 26 47 47 50 47 4 0 26 -19 49 -43z
m-80 -365 c37 -4 38 -5 16 -110 -21 -101 -66 -208 -125 -297 -61 -91 -211
-235 -322 -309 -128 -85 -351 -188 -552 -255 l-180 -59 -18 34 c-19 36 -69 74
-99 74 -22 0 -23 35 -7 177 14 132 50 266 98 368 49 105 79 148 97 141 9 -3
14 2 14 14 0 23 17 25 74 9 31 -9 47 -7 82 6 57 22 86 63 88 123 1 49 14 72
40 72 9 0 16 7 16 15 0 27 249 85 366 85 135 0 279 36 339 84 l30 24 5 -96 5
-97 33 -3z m-892 -8 c68 -71 30 -170 -69 -181 -43 -5 -49 -3 -82 30 -30 30
-35 42 -35 80 0 37 5 51 31 76 25 26 39 31 76 31 39 0 50 -5 79 -36z m-353
-956 c23 -12 57 -67 57 -91 0 -33 -29 -82 -59 -100 -81 -48 -182 20 -167 111
12 79 95 118 169 80z"/>
</g>
</svg>
